<!--?xml version="1.0" encoding="UTF-8" standalone="no"?-->
<svg xmlns:dc="http://purl.org/dc/elements/1.1/" xmlns:cc="http://creativecommons.org/ns#" xmlns:rdf="http://www.w3.org/1999/02/22-rdf-syntax-ns#" xmlns:svg="http://www.w3.org/2000/svg" xmlns="http://www.w3.org/2000/svg" xmlns:sodipodi="http://sodipodi.sourceforge.net/DTD/sodipodi-0.dtd" xmlns:inkscape="http://www.inkscape.org/namespaces/inkscape" width="1832.8932" height="145.50978" viewBox="0 0 484.95302 38.499465" version="1.1" id="svg8" sodipodi:docname="completeplane.svg" inkscape:version="1.0.2-2 (e86c870879, 2021-01-15)" style="">
  <defs id="defs2"></defs>
  <sodipodi:namedview id="base" pagecolor="#ffffff" bordercolor="#666666" borderopacity="1.0" inkscape:pageopacity="0.0" inkscape:pageshadow="2" inkscape:zoom="0.59212132" inkscape:cx="987.01445" inkscape:cy="-231.69073" inkscape:document-units="mm" inkscape:current-layer="layer1" inkscape:document-rotation="0" showgrid="false" inkscape:window-width="1920" inkscape:window-height="1017" inkscape:window-x="-8" inkscape:window-y="-8" inkscape:window-maximized="1" fit-margin-top="5" fit-margin-left="5" fit-margin-right="10" fit-margin-bottom="10" units="px"></sodipodi:namedview>
  <metadata id="metadata5">
    <rdf:rdf>
      <cc:work rdf:about="">
        <dc:format>image/svg+xml</dc:format>
        <dc:type rdf:resource="http://purl.org/dc/dcmitype/StillImage"></dc:type>
        <dc:title></dc:title>
      </cc:work>
    </rdf:rdf>
  </metadata>
  <g inkscape:label="レイヤー 1" inkscape:groupmode="layer" id="layer1" transform="translate(-41.18878,-112.33495)">
    <path style="fill: none; stroke: rgb(0, 0, 0); stroke-width: 3.38282; stroke-linecap: butt; stroke-linejoin: round; stroke-miterlimit: 4; stroke-opacity: 1;" d="m 44.957204,121.84776 c 0,0 6.556548,0.92023 18.979456,-0.34508" id="path837" class="ZnuQfOBc_0"></path>
    <path style="fill: none; stroke: rgb(0, 0, 0); stroke-width: 3.38282; stroke-linecap: butt; stroke-linejoin: round; stroke-miterlimit: 4; stroke-opacity: 1;" d="m 45.072229,134.50075 c 0,0 -1.955454,5.63632 0.115055,7.70681 2.070486,2.07047 7.591772,3.33578 21.164959,1.3803" id="path841" class="ZnuQfOBc_1"></path>
    <path style="fill: none; stroke: rgb(0, 0, 0); stroke-width: 3.38282; stroke-linecap: butt; stroke-linejoin: round; stroke-miterlimit: 4; stroke-opacity: 1;" d="m 64.16671,116.67156 c 0,0 1.150272,1.72541 3.105733,5.1762" id="path843" class="ZnuQfOBc_2"></path>
    <path style="fill: none; stroke: rgb(0, 0, 0); stroke-width: 3.38282; stroke-linecap: butt; stroke-linejoin: round; stroke-miterlimit: 4; stroke-opacity: 1;" d="m 68.204423,115.29864 c 0,0 1.488994,1.98532 2.765276,4.82151" id="path845" class="ZnuQfOBc_3"></path>
    <path style="fill: none; stroke: rgb(0, 0, 0); stroke-width: 3.38282; stroke-linecap: butt; stroke-linejoin: round; stroke-miterlimit: 4; stroke-opacity: 1;" d="m 77.3511,116.3622 c 0,0 3.757956,1.34718 6.735936,3.89976" id="path847" class="ZnuQfOBc_4"></path>
    <path style="fill: none; stroke: rgb(0, 0, 0); stroke-width: 3.38282; stroke-linecap: butt; stroke-linejoin: round; stroke-miterlimit: 4; stroke-opacity: 1;" d="m 75.365784,125.93431 c 0,0 4.112462,1.48899 6.806834,3.47434" id="path849" class="ZnuQfOBc_5"></path>
    <path style="fill: none; stroke: rgb(0, 0, 0); stroke-width: 3.38282; stroke-linecap: butt; stroke-linejoin: round; stroke-miterlimit: 4; stroke-opacity: 1;" d="m 76.854778,146.213 c 0,0 3.474317,-4.53789 6.806834,-11.2029" id="path851" class="ZnuQfOBc_6"></path>
    <path style="fill: none; stroke: rgb(0, 0, 0); stroke-width: 3.38282; stroke-linecap: butt; stroke-linejoin: round; stroke-miterlimit: 4; stroke-opacity: 1;" d="m 90.681165,115.93678 c 0,0 4.396078,1.98532 7.941307,5.74326" id="path853" class="ZnuQfOBc_7"></path>
    <path style="fill: none; stroke: rgb(0, 0, 0); stroke-width: 3.38282; stroke-linecap: butt; stroke-linejoin: round; stroke-miterlimit: 4; stroke-opacity: 1;" d="m 85.150613,124.09081 21.413167,0.0707" id="path855" class="ZnuQfOBc_8"></path>
    <path style="fill: none; stroke: rgb(0, 0, 0); stroke-width: 3.38282; stroke-linecap: butt; stroke-linejoin: round; stroke-miterlimit: 4; stroke-opacity: 1;" d="M 86.568703,134.30106 H 105.3584" id="path857" class="ZnuQfOBc_9"></path>
    <path style="fill: none; stroke: rgb(0, 0, 0); stroke-width: 3.38282; stroke-linecap: butt; stroke-linejoin: round; stroke-miterlimit: 4; stroke-opacity: 1;" d="m 95.573572,122.88541 0.07088,23.82395" id="path859" class="ZnuQfOBc_10"></path>
    <path style="fill: none; stroke: rgb(0, 0, 0); stroke-width: 3.38282; stroke-linecap: butt; stroke-linejoin: round; stroke-miterlimit: 4; stroke-opacity: 1;" d="M 84.016132,145.50396 H 107.34373" id="path861" class="ZnuQfOBc_11"></path>
    <path style="fill: none; stroke: rgb(0, 0, 0); stroke-width: 3.38282; stroke-linecap: butt; stroke-linejoin: round; stroke-miterlimit: 4; stroke-opacity: 1;" d="m 126.70066,115.08593 0.14181,8.57942" id="path863" class="ZnuQfOBc_12"></path>
    <path style="fill: none; stroke: rgb(0, 0, 0); stroke-width: 3.38282; stroke-linecap: butt; stroke-linejoin: round; stroke-miterlimit: 4; stroke-opacity: 1;" d="m 110.81805,122.38908 32.04886,0.071" id="path865" class="ZnuQfOBc_13"></path>
    <path style="fill: none; stroke: rgb(0, 0, 0); stroke-width: 3.38282; stroke-linecap: butt; stroke-linejoin: round; stroke-miterlimit: 4; stroke-opacity: 1;" d="m 117.48308,123.73626 c 0,0 3.04889,10.13938 11.84106,16.66258 8.79216,6.5232 12.90462,6.09781 12.90462,6.09781" id="path867" class="ZnuQfOBc_14"></path>
    <path style="fill: none; stroke: rgb(0, 0, 0); stroke-width: 3.38282; stroke-linecap: butt; stroke-linejoin: round; stroke-miterlimit: 4; stroke-opacity: 1;" d="m 135.63464,123.66535 c 0,0 -2.62347,8.79217 -8.86307,14.67727 -6.2396,5.88507 -15.38627,8.08313 -15.38627,8.08313" id="path869" class="ZnuQfOBc_15"></path>
    <path style="fill: none; stroke: rgb(0, 0, 0); stroke-width: 3.38282; stroke-linecap: butt; stroke-linejoin: round; stroke-miterlimit: 4; stroke-opacity: 1;" d="m 150.02826,122.03456 c 0,0 9.50122,1.27631 23.11489,-1.06356" id="path871" class="ZnuQfOBc_16"></path>
    <path style="fill: none; stroke: rgb(0, 0, 0); stroke-width: 3.38282; stroke-linecap: butt; stroke-linejoin: round; stroke-miterlimit: 4; stroke-opacity: 1;" d="m 160.09671,116.78763 c 0,0 -3.40341,17.08801 0.56724,27.58187" id="path873" class="ZnuQfOBc_17"></path>
    <path style="fill: none; stroke: rgb(0, 0, 0); stroke-width: 3.38282; stroke-linecap: butt; stroke-linejoin: round; stroke-miterlimit: 4; stroke-opacity: 1;" d="m 169.17249,125.08346 c -1.44183,9.58382 -12.84407,21.64393 -18.15157,17.30072 -2.8765,-2.3539 0.92177,-9.64301 7.37408,-12.55011 6.45232,-2.9071 15.10267,-1.70173 16.73347,2.978 1.63081,4.67967 -1.20538,11.69924 -10.35206,12.9046" id="path875" sodipodi:nodetypes="csssc" class="ZnuQfOBc_18"></path>
    <path style="fill: none; stroke: rgb(0, 0, 0); stroke-width: 3.38282; stroke-linecap: butt; stroke-linejoin: round; stroke-miterlimit: 4; stroke-opacity: 1;" d="m 190.86928,116.85853 c 0,0 -2.19804,12.3374 -1.06357,19.85326 0,0 -0.70904,-6.23958 3.54523,-11.98284 4.25428,-5.74326 7.58679,-4.82151 9.64302,-4.04156 2.05623,0.77994 5.17603,5.31783 4.18337,12.69192 -0.99267,7.37405 -7.58679,11.2029 -13.9682,12.26645" id="path877" class="ZnuQfOBc_19"></path>
    <path style="fill: none; stroke: rgb(0, 0, 0); stroke-width: 3.38282; stroke-linecap: butt; stroke-linejoin: round; stroke-miterlimit: 4; stroke-opacity: 1;" d="m 218.87658,126.64335 c 0,0 13.96819,-1.06356 15.95352,-0.92175 1.98532,0.14174 3.97065,1.34718 3.82885,4.11247 -0.14181,2.76525 0.3709,9.01577 -2.55258,13.40096 -1.55989,2.33987 -7.79949,0.77995 -7.79949,0.77995" id="path881" sodipodi:nodetypes="csssc" class="ZnuQfOBc_20"></path>
    <path style="fill: none; stroke: rgb(0, 0, 0); stroke-width: 3.38282; stroke-linecap: butt; stroke-linejoin: round; stroke-miterlimit: 4; stroke-opacity: 1;" d="m 229.72497,117.21305 c 0,0 0.21271,11.98288 -8.93397,28.22" id="path883" class="ZnuQfOBc_21"></path>
    <path style="fill: none; stroke: rgb(0, 0, 0); stroke-width: 3.38282; stroke-linecap: butt; stroke-linejoin: round; stroke-miterlimit: 4; stroke-opacity: 1;" d="m 242.48779,121.96366 c 0,0 3.61613,4.67969 6.38141,12.55011" id="path885" class="ZnuQfOBc_22"></path>
    <path style="fill: none; stroke: rgb(0, 0, 0); stroke-width: 3.38282; stroke-linecap: butt; stroke-linejoin: round; stroke-miterlimit: 4; stroke-opacity: 1;" d="m 243.26774,116.57492 c 0,0 1.13447,1.34718 2.83618,4.96332" id="path887" class="ZnuQfOBc_23"></path>
    <path style="fill: none; stroke: rgb(0, 0, 0); stroke-width: 3.38282; stroke-linecap: butt; stroke-linejoin: round; stroke-miterlimit: 4; stroke-opacity: 1;" d="m 247.3093,115.15683 c 0,0 1.489,1.98532 2.90709,4.82151" id="path889" class="ZnuQfOBc_24"></path>
    <path style="fill: none; stroke: rgb(0, 0, 0); stroke-width: 3.38282; stroke-linecap: butt; stroke-linejoin: round; stroke-miterlimit: 4; stroke-opacity: 1;" d="m 260.99387,117.993 c 0,0 3.75794,9.4303 6.38141,12.69192" id="path891" class="ZnuQfOBc_25"></path>
    <path style="fill: none; stroke: rgb(0, 0, 0); stroke-width: 3.38282; stroke-linecap: butt; stroke-linejoin: round; stroke-miterlimit: 4; stroke-opacity: 1;" d="m 279.57086,122.31817 c 0,0 -16.23714,7.87042 -19.00241,13.40097 -2.76529,5.53055 3.33251,8.50855 6.31049,8.65036 2.978,0.14174 10.35207,-0.14174 14.39363,-0.99266" id="path893" class="ZnuQfOBc_26"></path>
    <path style="fill: none; stroke: rgb(0, 0, 0); stroke-width: 3.38282; stroke-linecap: butt; stroke-linejoin: round; stroke-miterlimit: 4; stroke-opacity: 1;" d="m 298.50238,118.34752 c 0,0 8.15402,1.55992 15.10265,1.70173" id="path895" class="ZnuQfOBc_27"></path>
    <path style="fill: none; stroke: rgb(0, 0, 0); stroke-width: 3.38282; stroke-linecap: butt; stroke-linejoin: round; stroke-miterlimit: 4; stroke-opacity: 1;" d="m 294.46081,129.12503 c 0,0 10.49387,-3.11981 15.66989,-2.33987 5.17606,0.77995 5.45968,6.09782 4.46703,9.21759 -0.9927,3.11981 -4.32519,7.72861 -14.67728,9.4303" id="path897" class="ZnuQfOBc_28"></path>
    <path style="fill: none; stroke: rgb(0, 0, 0); stroke-width: 3.38282; stroke-linecap: butt; stroke-linejoin: round; stroke-miterlimit: 4; stroke-opacity: 1;" d="m 331.40208,121.89276 c 0,0 11.48655,0.99265 19.00241,-0.14174" id="path899" class="ZnuQfOBc_29"></path>
    <path style="fill: none; stroke: rgb(0, 0, 0); stroke-width: 3.38282; stroke-linecap: butt; stroke-linejoin: round; stroke-miterlimit: 4; stroke-opacity: 1;" d="m 331.40208,134.58468 c 0,0 -1.91441,6.45229 1.13446,8.22493 3.04891,1.7726 10.70661,2.90706 20.20781,0.56723" id="path901" class="ZnuQfOBc_30"></path>
    <path style="fill: none; stroke: rgb(0, 0, 0); stroke-width: 3.38282; stroke-linecap: butt; stroke-linejoin: round; stroke-miterlimit: 4; stroke-opacity: 1;" d="m 350.6881,116.78763 c 0,0 1.34721,2.12712 2.8362,4.96332" id="path903" class="ZnuQfOBc_31"></path>
    <path style="fill: none; stroke: rgb(0, 0, 0); stroke-width: 3.38282; stroke-linecap: butt; stroke-linejoin: round; stroke-miterlimit: 4; stroke-opacity: 1;" d="m 354.72967,115.36955 c 0,0 1.91444,2.76526 2.83619,4.6797" id="path905" class="ZnuQfOBc_32"></path>
    <path style="fill: none; stroke: rgb(0, 0, 0); stroke-width: 3.38282; stroke-linecap: butt; stroke-linejoin: round; stroke-miterlimit: 4; stroke-opacity: 1;" d="m 365.01082,124.44533 c 0,0 12.05378,1.7017 24.17847,-1.98535" id="path907" class="ZnuQfOBc_33"></path>
    <path style="fill: none; stroke: rgb(0, 0, 0); stroke-width: 3.38282; stroke-linecap: butt; stroke-linejoin: round; stroke-miterlimit: 4; stroke-opacity: 1;" d="m 377.98636,117.21305 8.65035,18.64789 -7.79947,-1.13446" id="path909" class="ZnuQfOBc_34"></path>
    <path style="fill: none; stroke: rgb(0, 0, 0); stroke-width: 3.38282; stroke-linecap: butt; stroke-linejoin: round; stroke-miterlimit: 4; stroke-opacity: 1;" d="m 367.91792,134.37196 c 0,0 -1.84351,6.09778 0.21278,8.22494 2.05625,2.12712 6.09778,3.82885 17.088,1.7726" id="path911" inkscape:label="path910" class="ZnuQfOBc_35"></path>
    <path style="fill: none; stroke: rgb(0, 0, 0); stroke-width: 3.38282; stroke-linecap: butt; stroke-linejoin: round; stroke-miterlimit: 4; stroke-opacity: 1;" d="m 386.31203,116.06837 c 0,0 1.71503,2.54639 2.88467,4.83132" id="path931" inkscape:label="path911" class="ZnuQfOBc_36"></path>
    <path style="fill: none; stroke: rgb(0, 0, 0); stroke-width: 3.38282; stroke-linecap: butt; stroke-linejoin: round; stroke-miterlimit: 4; stroke-opacity: 1;" d="m 390.23039,114.67052 c 0,0 2.01291,2.69297 2.85615,4.8691" id="path933" inkscape:label="path912" class="ZnuQfOBc_37"></path>
    <path style="fill: none; stroke: rgb(0, 0, 0); stroke-width: 3.38282; stroke-linecap: butt; stroke-linejoin: round; stroke-miterlimit: 4; stroke-opacity: 1;" d="m 401.45579,120.19106 c 0,0 -0.12889,15.92756 2.76526,20.49139 1.84354,2.9071 3.90354,4.04532 5.24693,2.62349 2.58251,-2.73336 4.18337,-7.30319 4.18337,-7.30319" id="path913" sodipodi:nodetypes="cssc" class="ZnuQfOBc_38"></path>
    <path style="fill: none; stroke: rgb(0, 0, 0); stroke-width: 3.38282; stroke-linecap: butt; stroke-linejoin: round; stroke-miterlimit: 4; stroke-opacity: 1;" d="m 420.52911,121.60914 c 0,0 5.38873,7.01956 6.09778,17.22981" id="path915" class="ZnuQfOBc_39"></path>
    <path style="fill: none; stroke: rgb(0, 0, 0); stroke-width: 3.38282; stroke-linecap: butt; stroke-linejoin: round; stroke-miterlimit: 4; stroke-opacity: 1;" d="m 438.46796,121.82185 c 0,0 11.55742,1.41808 22.05128,-0.28348" id="path917" class="ZnuQfOBc_40"></path>
    <path style="fill: none; stroke: rgb(0, 0, 0); stroke-width: 3.38282; stroke-linecap: butt; stroke-linejoin: round; stroke-miterlimit: 4; stroke-opacity: 1;" d="m 437.82979,129.40865 c 0,0 12.4083,1.41808 23.32759,-0.35452" id="path919" class="ZnuQfOBc_41"></path>
    <path style="fill: none; stroke: rgb(0, 0, 0); stroke-width: 3.38282; stroke-linecap: butt; stroke-linejoin: round; stroke-miterlimit: 4; stroke-opacity: 1;" d="m 449.95448,116.85853 c 0,0 0.21278,22.90217 0.28348,24.95839 0.071,2.05625 -2.12713,3.82884 -6.16869,3.40343 -4.04156,-0.42543 -4.89241,-2.19803 -4.89241,-4.25428 0,-2.05622 3.82882,-4.25428 6.59411,-4.18337 2.76529,0.071 8.08312,0.21278 15.24447,6.59414" id="path921" class="ZnuQfOBc_42"></path>
    <path style="fill: none; stroke: rgb(0, 0, 0); stroke-width: 3.383; stroke-linecap: butt; stroke-linejoin: round; stroke-miterlimit: 4; stroke-opacity: 1;" d="m 470.51678,123.02721 c 0,0 18.57702,-0.63813 29.4254,-0.35452" id="path923" class="ZnuQfOBc_43"></path>
    <path style="fill: none; stroke: rgb(0, 0, 0); stroke-width: 3.383; stroke-linecap: butt; stroke-linejoin: round; stroke-miterlimit: 4; stroke-opacity: 1;" d="m 487.67568,116.85853 0.071,13.33006 c 0,0 1.84341,2.33987 0.56714,4.6797 -1.27631,2.33987 -3.40343,3.68704 -6.16872,2.8362 -2.76525,-0.85085 -3.33249,-3.54524 -2.55254,-6.23962 0.77994,-2.69436 3.04887,-3.61611 4.96331,-3.3325 1.91441,0.28348 4.25428,1.13447 4.25428,6.3814 0,5.24693 -3.26162,8.72126 -9.92663,11.41565" id="path925" class="ZnuQfOBc_44"></path>
    <path style="fill: none; fill-opacity: 1; stroke: rgb(0, 0, 0); stroke-width: 1.995; stroke-linecap: butt; stroke-linejoin: round; stroke-miterlimit: 4; stroke-opacity: 1;" d="m 511.11079,118.34752 0.92175,18.00975 h 2.26896 l 1.06357,-18.00975 z" id="path927" class="ZnuQfOBc_45"></path>
    <path style="opacity: 1; fill: none; fill-opacity: 1; stroke: rgb(0, 0, 0); stroke-width: 1.995; stroke-linecap: butt; stroke-linejoin: round; stroke-miterlimit: 4; stroke-opacity: 1;" d="m 513.24298,140.10636 c -1.55988,0 -2.42386,0.9845 -2.42721,2.46774 -0.004,1.49771 1.01796,2.24362 2.43608,2.24362 1.41807,0 2.36852,-1.0317 2.38794,-2.36899 0.0169,-1.14515 -0.82683,-2.35378 -2.39681,-2.34237 z" id="path929" sodipodi:nodetypes="csssc" class="ZnuQfOBc_46"></path>
  </g>
<style data-made-with="vivus-instant">.ZnuQfOBc_0{stroke-dasharray:20 22;stroke-dashoffset:21;animation:ZnuQfOBc_draw 65ms linear 0ms forwards;}.ZnuQfOBc_1{stroke-dasharray:30 32;stroke-dashoffset:31;animation:ZnuQfOBc_draw 97ms linear 65ms forwards;}.ZnuQfOBc_2{stroke-dasharray:7 9;stroke-dashoffset:8;animation:ZnuQfOBc_draw 25ms linear 163ms forwards;}.ZnuQfOBc_3{stroke-dasharray:6 8;stroke-dashoffset:7;animation:ZnuQfOBc_draw 21ms linear 188ms forwards;}.ZnuQfOBc_4{stroke-dasharray:8 10;stroke-dashoffset:9;animation:ZnuQfOBc_draw 28ms linear 210ms forwards;}.ZnuQfOBc_5{stroke-dasharray:8 10;stroke-dashoffset:9;animation:ZnuQfOBc_draw 28ms linear 238ms forwards;}.ZnuQfOBc_6{stroke-dasharray:14 16;stroke-dashoffset:15;animation:ZnuQfOBc_draw 47ms linear 266ms forwards;}.ZnuQfOBc_7{stroke-dasharray:10 12;stroke-dashoffset:11;animation:ZnuQfOBc_draw 34ms linear 313ms forwards;}.ZnuQfOBc_8{stroke-dasharray:22 24;stroke-dashoffset:23;animation:ZnuQfOBc_draw 72ms linear 348ms forwards;}.ZnuQfOBc_9{stroke-dasharray:19 21;stroke-dashoffset:20;animation:ZnuQfOBc_draw 62ms linear 420ms forwards;}.ZnuQfOBc_10{stroke-dasharray:24 26;stroke-dashoffset:25;animation:ZnuQfOBc_draw 78ms linear 483ms forwards;}.ZnuQfOBc_11{stroke-dasharray:24 26;stroke-dashoffset:25;animation:ZnuQfOBc_draw 78ms linear 561ms forwards;}.ZnuQfOBc_12{stroke-dasharray:9 11;stroke-dashoffset:10;animation:ZnuQfOBc_draw 31ms linear 640ms forwards;}.ZnuQfOBc_13{stroke-dasharray:33 35;stroke-dashoffset:34;animation:ZnuQfOBc_draw 106ms linear 671ms forwards;}.ZnuQfOBc_14{stroke-dasharray:36 38;stroke-dashoffset:37;animation:ZnuQfOBc_draw 116ms linear 778ms forwards;}.ZnuQfOBc_15{stroke-dasharray:35 37;stroke-dashoffset:36;animation:ZnuQfOBc_draw 112ms linear 894ms forwards;}.ZnuQfOBc_16{stroke-dasharray:24 26;stroke-dashoffset:25;animation:ZnuQfOBc_draw 78ms linear 1007ms forwards;}.ZnuQfOBc_17{stroke-dasharray:28 30;stroke-dashoffset:29;animation:ZnuQfOBc_draw 90ms linear 1085ms forwards;}.ZnuQfOBc_18{stroke-dasharray:83 85;stroke-dashoffset:84;animation:ZnuQfOBc_draw 263ms linear 1176ms forwards;}.ZnuQfOBc_19{stroke-dasharray:79 81;stroke-dashoffset:80;animation:ZnuQfOBc_draw 250ms linear 1440ms forwards;}.ZnuQfOBc_20{stroke-dasharray:45 47;stroke-dashoffset:46;animation:ZnuQfOBc_draw 144ms linear 1690ms forwards;}.ZnuQfOBc_21{stroke-dasharray:30 32;stroke-dashoffset:31;animation:ZnuQfOBc_draw 97ms linear 1835ms forwards;}.ZnuQfOBc_22{stroke-dasharray:15 17;stroke-dashoffset:16;animation:ZnuQfOBc_draw 50ms linear 1932ms forwards;}.ZnuQfOBc_23{stroke-dasharray:6 8;stroke-dashoffset:7;animation:ZnuQfOBc_draw 21ms linear 1982ms forwards;}.ZnuQfOBc_24{stroke-dasharray:6 8;stroke-dashoffset:7;animation:ZnuQfOBc_draw 21ms linear 2004ms forwards;}.ZnuQfOBc_25{stroke-dasharray:15 17;stroke-dashoffset:16;animation:ZnuQfOBc_draw 50ms linear 2026ms forwards;}.ZnuQfOBc_26{stroke-dasharray:51 53;stroke-dashoffset:52;animation:ZnuQfOBc_draw 163ms linear 2076ms forwards;}.ZnuQfOBc_27{stroke-dasharray:16 18;stroke-dashoffset:17;animation:ZnuQfOBc_draw 53ms linear 2240ms forwards;}.ZnuQfOBc_28{stroke-dasharray:47 49;stroke-dashoffset:48;animation:ZnuQfOBc_draw 150ms linear 2293ms forwards;}.ZnuQfOBc_29{stroke-dasharray:20 22;stroke-dashoffset:21;animation:ZnuQfOBc_draw 65ms linear 2443ms forwards;}.ZnuQfOBc_30{stroke-dasharray:30 32;stroke-dashoffset:31;animation:ZnuQfOBc_draw 97ms linear 2509ms forwards;}.ZnuQfOBc_31{stroke-dasharray:6 8;stroke-dashoffset:7;animation:ZnuQfOBc_draw 21ms linear 2607ms forwards;}.ZnuQfOBc_32{stroke-dasharray:6 8;stroke-dashoffset:7;animation:ZnuQfOBc_draw 21ms linear 2629ms forwards;}.ZnuQfOBc_33{stroke-dasharray:25 27;stroke-dashoffset:26;animation:ZnuQfOBc_draw 81ms linear 2650ms forwards;}.ZnuQfOBc_34{stroke-dasharray:29 31;stroke-dashoffset:30;animation:ZnuQfOBc_draw 94ms linear 2732ms forwards;}.ZnuQfOBc_35{stroke-dasharray:27 29;stroke-dashoffset:28;animation:ZnuQfOBc_draw 87ms linear 2826ms forwards;}.ZnuQfOBc_36{stroke-dasharray:6 8;stroke-dashoffset:7;animation:ZnuQfOBc_draw 21ms linear 2914ms forwards;}.ZnuQfOBc_37{stroke-dasharray:6 8;stroke-dashoffset:7;animation:ZnuQfOBc_draw 21ms linear 2936ms forwards;}.ZnuQfOBc_38{stroke-dasharray:37 39;stroke-dashoffset:38;animation:ZnuQfOBc_draw 119ms linear 2958ms forwards;}.ZnuQfOBc_39{stroke-dasharray:19 21;stroke-dashoffset:20;animation:ZnuQfOBc_draw 62ms linear 3077ms forwards;}.ZnuQfOBc_40{stroke-dasharray:23 25;stroke-dashoffset:24;animation:ZnuQfOBc_draw 75ms linear 3140ms forwards;}.ZnuQfOBc_41{stroke-dasharray:24 26;stroke-dashoffset:25;animation:ZnuQfOBc_draw 78ms linear 3215ms forwards;}.ZnuQfOBc_42{stroke-dasharray:66 68;stroke-dashoffset:67;animation:ZnuQfOBc_draw 210ms linear 3294ms forwards;}.ZnuQfOBc_43{stroke-dasharray:30 32;stroke-dashoffset:31;animation:ZnuQfOBc_draw 97ms linear 3504ms forwards;}.ZnuQfOBc_44{stroke-dasharray:65 67;stroke-dashoffset:66;animation:ZnuQfOBc_draw 207ms linear 3601ms forwards;}.ZnuQfOBc_45{stroke-dasharray:43 45;stroke-dashoffset:44;animation:ZnuQfOBc_draw 138ms linear 3808ms forwards;}.ZnuQfOBc_46{stroke-dasharray:16 18;stroke-dashoffset:17;animation:ZnuQfOBc_draw 53ms linear 3946ms forwards;}@keyframes ZnuQfOBc_draw{100%{stroke-dashoffset:0;}}@keyframes ZnuQfOBc_fade{0%{stroke-opacity:1;}95.1219512195122%{stroke-opacity:1;}100%{stroke-opacity:0;}}</style></svg>
